<?xml version="1.0" encoding="UTF-8" standalone="no"?>
<!-- Created with Inkscape (http://www.inkscape.org/) -->

<svg
   xmlns:dc="http://purl.org/dc/elements/1.1/"
   xmlns:cc="http://creativecommons.org/ns#"
   xmlns:rdf="http://www.w3.org/1999/02/22-rdf-syntax-ns#"
   xmlns:svg="http://www.w3.org/2000/svg"
   xmlns="http://www.w3.org/2000/svg"
   xmlns:sodipodi="http://sodipodi.sourceforge.net/DTD/sodipodi-0.dtd"
   xmlns:inkscape="http://www.inkscape.org/namespaces/inkscape"
   id="svg4366"
   sodipodi:docname="Happy-Tiger-Hello.svg"
   viewBox="0 0 470.57813 560.57819"
   version="1.1"
   inkscape:version="0.91 r13725"
   width="470.57812"
   height="560.57819">
  <title
     id="title5526">Happy Tiger</title>
  <defs
     id="defs4368">
    <filter
       id="filter6010"
       height="1.1518"
       width="1.261"
       y="-0.075920001"
       x="-0.13052"
       inkscape:collect="always"
       style="color-interpolation-filters:sRGB">
      <feGaussianBlur
         id="feGaussianBlur6012"
         stdDeviation="2.090276"
         inkscape:collect="always" />
    </filter>
    <linearGradient
       id="linearGradient4512"
       y2="71.940002"
       gradientUnits="userSpaceOnUse"
       x2="143.3"
       y1="60.362999"
       x1="154.64999"
       inkscape:collect="always">
      <stop
         id="stop4075"
         style="stop-color:#47001c"
         offset="0" />
      <stop
         id="stop4077"
         style="stop-color:#5e0000"
         offset="1" />
    </linearGradient>
    <filter
       id="filter4124"
       height="1.1599"
       width="1.2403001"
       y="-0.079929002"
       x="-0.12016"
       inkscape:collect="always"
       style="color-interpolation-filters:sRGB">
      <feGaussianBlur
         id="feGaussianBlur4126"
         stdDeviation="0.26348808"
         inkscape:collect="always" />
    </filter>
    <filter
       id="filter7516"
       inkscape:collect="always"
       style="color-interpolation-filters:sRGB">
      <feGaussianBlur
         id="feGaussianBlur7518"
         stdDeviation="0.16387441"
         inkscape:collect="always" />
    </filter>
    <filter
       id="filter7520"
       inkscape:collect="always"
       style="color-interpolation-filters:sRGB">
      <feGaussianBlur
         id="feGaussianBlur7522"
         stdDeviation="0.16387441"
         inkscape:collect="always" />
    </filter>
    <radialGradient
       id="radialGradient4514"
       gradientUnits="userSpaceOnUse"
       cy="33.077"
       cx="222.37"
       gradientTransform="matrix(0.48326,0.19168,-0.29135,0.73454,124.2,-34.093)"
       r="4.7126002"
       inkscape:collect="always">
      <stop
         id="stop4969"
         style="stop-color:#ffffff"
         offset="0" />
      <stop
         id="stop4971"
         style="stop-color:#9bad00"
         offset="1" />
    </radialGradient>
    <radialGradient
       id="radialGradient4516"
       gradientUnits="userSpaceOnUse"
       cy="24.961"
       cx="143.52"
       gradientTransform="matrix(0.70122,0.28164,-0.34779,0.8659,51.769,-36.802)"
       r="3.5871999"
       inkscape:collect="always">
      <stop
         id="stop4969-6"
         style="stop-color:#ffffff"
         offset="0" />
      <stop
         id="stop4971-0"
         style="stop-color:#9bad00"
         offset="1" />
    </radialGradient>
    <radialGradient
       id="radialGradient4518"
       gradientUnits="userSpaceOnUse"
       cy="36.960999"
       cx="140.3"
       gradientTransform="matrix(0.80482,0.15909,-0.10741,0.54336,31.354,-5.4433)"
       r="14.701"
       inkscape:collect="always">
      <stop
         id="stop3824"
         style="stop-color:#785523"
         offset="0" />
      <stop
         id="stop3826"
         style="stop-color:#2e1800"
         offset="1" />
    </radialGradient>
  </defs>
  <sodipodi:namedview
     id="base"
     bordercolor="#666666"
     inkscape:pageshadow="2"
     inkscape:window-y="37"
     fit-margin-left="5"
     pagecolor="#ffffff"
     fit-margin-top="5"
     inkscape:window-maximized="0"
     inkscape:zoom="0.50000002"
     inkscape:window-x="1366"
     inkscape:window-height="1043"
     showgrid="false"
     borderopacity="1.0"
     inkscape:current-layer="layer1"
     inkscape:cx="705.30042"
     inkscape:cy="144.52513"
     fit-margin-right="5"
     fit-margin-bottom="5"
     inkscape:window-width="1920"
     inkscape:pageopacity="0.0"
     inkscape:document-units="px" />
  <g
     id="layer1"
     inkscape:label="Layer 1"
     inkscape:groupmode="layer"
     transform="translate(-174.30015,-213.9435)">
    <rect
       style="opacity:1;fill:#f9f9f9;fill-opacity:1;stroke:#000000;stroke-width:0.5781579;stroke-miterlimit:4;stroke-dasharray:none;stroke-dashoffset:0;stroke-opacity:1"
       id="rect4049"
       width="459.99997"
       height="550"
       x="179.58923"
       y="219.23257" />
    <g
       id="g3772"
       transform="matrix(0.77772,0,0,0.77772,984.23,-695.6)">
      <path
         id="path5434-3"
         d="m -566.54,1482.7 c -48.173,-30.026 -6.9108,-83.301 13.734,-26.933"
         sodipodi:nodetypes="cc"
         style="color:#000000;fill:#dd8404;stroke:#000000;stroke-width:3.14899993px;stroke-linecap:square"
         inkscape:connector-curvature="0" />
      <g
         id="g7584"
         transform="matrix(3.149,0,0,3.149,-1823.9,61.883)">
        <g
           id="g6388"
           transform="translate(191.3,365.81)">
          <g
             id="g6210">
            <path
               id="path5315"
               sodipodi:nodetypes="cssscacc"
               style="color:#000000;fill:#dd8404;stroke:#000000;stroke-width:1px"
               inkscape:connector-curvature="0"
               d="m 148,168.5 c 22.086,10.313 42.213,41.563 67,25 22.198,-14.833 14.759,-52.248 -5.125,-57.625 -8.1333,-2.1994 -18.312,3.0969 -17.569,9.2512 0.49751,4.1209 5.1862,6.7835 9.194,7.3738 11.227,1.743 12.685,19.754 6.125,25.562 -15.41,13.65 -39.15,-15.05 -57.87,-21.56 z" />
            <g
               id="g6192">
              <path
                 id="path5323"
                 d="m 205.16,135.38 c -6.8611,0.30723 -13.447,4.7496 -12.844,9.75 0.31791,2.6333 2.3461,4.6578 4.8125,5.9375 -0.75977,-5.5346 2.7279,-10.374 9.0938,-15.688 -0.35313,-0.008 -0.71065,-0.0158 -1.0625,0 z"
                 sodipodi:nodetypes="csccc"
                 style="color:#000000;fill:#000000;stroke:#000000;stroke-width:1px;stroke-linecap:round;stroke-linejoin:round"
                 inkscape:connector-curvature="0" />
              <path
                 id="path5469"
                 d="m 201.5,152.5 5.9375,-7.1875 -2.1445,8.5709 z"
                 sodipodi:nodetypes="cccc"
                 style="fill:#000000"
                 inkscape:connector-curvature="0" />
              <path
                 id="path5471"
                 sodipodi:nodetypes="cccc"
                 style="fill:#000000"
                 inkscape:connector-curvature="0"
                 d="m 187.51,195.04 4.5605,-7.7466 0.0652,9.5859 z" />
              <path
                 id="path5473"
                 d="m 203.7,198.02 0.81898,-8.6544 3.6973,7.5598 z"
                 sodipodi:nodetypes="cccc"
                 style="fill:#000000"
                 inkscape:connector-curvature="0" />
              <path
                 id="path5475"
                 sodipodi:nodetypes="cccc"
                 style="fill:#000000"
                 inkscape:connector-curvature="0"
                 d="m 228.4,162.81 -9.0906,-2.0151 8.2495,-3.3041 z" />
              <path
                 id="path5477"
                 d="m 224.27,183.5 -7.5928,-6.1552 9.7727,1.4045 z"
                 sodipodi:nodetypes="cccc"
                 style="fill:#000000"
                 inkscape:connector-curvature="0" />
              <path
                 id="path5479"
                 sodipodi:nodetypes="cccc"
                 style="fill:#000000"
                 inkscape:connector-curvature="0"
                 d="m 173.26,170.49 -0.61076,9.4657 4.6393,-6.7834 z" />
              <path
                 id="path5481"
                 d="m 183.92,177.17 0.0148,10.054 4.4161,-7.8775 z"
                 sodipodi:nodetypes="cccc"
                 style="fill:#000000"
                 inkscape:connector-curvature="0" />
              <path
                 id="path5483"
                 sodipodi:nodetypes="cccc"
                 style="fill:#000000"
                 inkscape:connector-curvature="0"
                 d="m 199.72,181.62 -0.15614,9.6236 -4.0671,-9.7443 z" />
              <path
                 id="path5485"
                 d="m 207.62,178.06 7.6969,8.5957 -11.694,-6.0384 z"
                 sodipodi:nodetypes="cccc"
                 style="fill:#000000"
                 inkscape:connector-curvature="0" />
              <path
                 id="path5487"
                 sodipodi:nodetypes="cccc"
                 style="fill:#000000"
                 inkscape:connector-curvature="0"
                 d="m 211.54,167.62 8.4529,0.31644 -9.3159,5.1404 z" />
              <path
                 id="path5489"
                 d="m 209.23,158.05 7.9997,-4.2427 -6.3438,8.3462 z"
                 sodipodi:nodetypes="cccc"
                 style="fill:#000000"
                 inkscape:connector-curvature="0" />
              <path
                 id="path5491"
                 d="m 221.93,144.7 -8.8668,3.8442 5.2291,-7.9451 z"
                 sodipodi:nodetypes="cccc"
                 style="fill:#000000"
                 inkscape:connector-curvature="0" />
              <path
                 id="path5493"
                 d="m 163.88,164.11 -0.85909,8.217 5.9047,-4.806 z"
                 sodipodi:nodetypes="cccc"
                 style="fill:#000000"
                 inkscape:connector-curvature="0" />
              <path
                 id="path5495"
                 d="m 173.01,185.79 5.3159,-5.0015 -0.81973,8.2789 z"
                 sodipodi:nodetypes="cccc"
                 style="fill:#000000"
                 inkscape:connector-curvature="0" />
              <path
                 id="path5497"
                 sodipodi:nodetypes="cccc"
                 style="fill:#000000"
                 inkscape:connector-curvature="0"
                 d="m 164.29,179.08 4.5345,-5.2868 -0.35333,8.5196 z" />
            </g>
          </g>
          <g
             id="g6348">
            <g
               id="g6344">
              <path
                 id="path5284"
                 d="m 147.01,92.478 c 3.8956,1.4699 4.6128,0.9451 5.2408,9.9304 21.274,-10.65 38.896,-12 60.17,-18.615 l 1.79,17.407 c -21.753,6.3823 -39.498,16.918 -61.787,16.336 0.52627,10.817 -0.87194,29.544 2.085,38.335 2.4043,4.4003 4.1111,7.3318 4.4752,11.879 0.67528,8.3959 1.8867,18.271 8.3468,20.112 21.379,6.0924 28.541,9.4627 19.647,17.681 -7.4862,6.9173 -32.865,-4.4675 -34.785,-13.594 -0.68406,-3.2512 -3.0114,-6.8139 -4.9621,-8.5392 -4.6586,-4.1204 -3.0008,-2.559 -4.7839,-4.1022 -3.9502,-3.4188 -7.03,-5.1897 -10.607,-5.4493 -5.8403,-0.42389 -16.569,1.0072 -24.081,7.7181 -0.96089,0.85834 -0.32323,4.2717 -1.4245,4.8982 -3.5579,2.0239 -10.262,12.117 -17.48,16.333 -4.0513,2.3668 -13.116,-0.47149 -15.24,-1.5261 -3.076,-1.5276 -7.1203,-9.321 -3.0702,-13.116 2.6948,-2.5249 9.4423,-2.5559 14.87,-2.8045 2.1868,-0.10018 3.4891,-0.60839 5.1823,-2.0164 l 4.4371,-4.1937 c 1.3928,-1.3164 1.5103,-2.251 1.6709,-3.527 0.12008,-2.9302 -1.327,-5.9953 -0.14679,-8.9527 1.573,-3.9416 7.5215,-7.7079 8.8879,-11.773 4.8558,-14.448 8.6733,-29.52 13.349,-44.076 -5.8535,0.42248 -35.691,-27.932 -34.945,-30.672 0.83088,-3.0512 9.4814,-18.735 9.4814,-18.735 9.7778,11.158 20.217,20.002 28.917,34.933 l 7.1532,-8.8603 z"
                 sodipodi:nodetypes="cccccccsssssssssssscscsscscccc"
                 style="color:#000000;fill:#dd8404;stroke:#000000;stroke-width:1px"
                 inkscape:connector-curvature="0" />
              <path
                 id="path5956"
                 d="m 129.39,104.12 c 3.3884,2.1534 7.0546,3.5922 11.99,1.7662 4.0965,-1.7871 3.543,-2.6037 3.7464,2.4392 0,0 1.6734,7.7321 1.6878,11.876 0.0222,6.3805 -0.8591,15.274 -0.36149,22.954 0.6167,9.5178 0.21324,17.987 0.89807,20.335 0.97019,9.193 -0.43024,5.7171 -5.6318,2.7985 -6.7915,-3.792 -14.272,-6.2427 -24.953,-2.4597 -6.508,1.6576 -9.2444,7.9165 -6.5127,-1.6314 0,0 2.9609,-10.29 6.5678,-20.916 2.6855,-7.9118 3.4907,-13.77 4.9115,-19.998 0.8533,-3.7406 3.9964,-13.177 3.9964,-13.177 1.1882,-3.4536 0.4257,-6.121 3.6607,-3.9859 z"
                 sodipodi:nodetypes="cccssccccsscc"
                 style="fill:#ffffff;filter:url(#filter6010)"
                 inkscape:connector-curvature="0" />
            </g>
            <g
               id="g6230">
              <path
                 id="path6014"
                 sodipodi:nodetypes="cccc"
                 style="fill:#000000"
                 inkscape:connector-curvature="0"
                 d="m 162.75,184.21 -3.4778,7.1208 6.9326,-3.8882 z" />
              <path
                 id="path6016"
                 d="m 155.38,182.94 -4.3726,5.684 -2.1611,-3.4588 z"
                 sodipodi:nodetypes="cccc"
                 style="fill:#000000"
                 inkscape:connector-curvature="0" />
              <path
                 id="path6018"
                 d="m 159.32,171.43 -6.7992,4.522 7.4038,-0.13768 z"
                 sodipodi:nodetypes="cccc"
                 style="fill:#000000"
                 inkscape:connector-curvature="0" />
              <path
                 id="path6020"
                 sodipodi:nodetypes="cccc"
                 style="fill:#000000"
                 inkscape:connector-curvature="0"
                 d="m 105.95,174.94 2.3416,6.1725 3.397,-2.4333 z" />
              <path
                 id="path6022"
                 sodipodi:nodetypes="cccc"
                 style="fill:#000000"
                 inkscape:connector-curvature="0"
                 d="m 96.093,169.09 8.446,2.0966 -8.0046,1.9999 z" />
              <path
                 id="path6134"
                 sodipodi:nodetypes="cccc"
                 style="fill:#000000"
                 inkscape:connector-curvature="0"
                 d="m 95.033,179.15 4.0452,6.2862 -7.6261,-2.9017 z" />
              <path
                 id="path6136"
                 sodipodi:nodetypes="cccc"
                 style="fill:#000000"
                 inkscape:connector-curvature="0"
                 d="m 117.18,89.154 -4.6831,5.5619 7.4808,-2.1821 z" />
              <path
                 id="path6138"
                 d="m 107.95,77.453 -5.303,4.955 8.4505,-1.1527 z"
                 sodipodi:nodetypes="cccc"
                 style="fill:#000000"
                 inkscape:connector-curvature="0" />
              <path
                 id="path6140"
                 sodipodi:nodetypes="cccc"
                 style="fill:#000000"
                 inkscape:connector-curvature="0"
                 d="m 103.17,100.19 -4.9905,-4.5705 7.9772,-1.801 z" />
              <path
                 id="path6142"
                 d="M 90.486,88.565 86.8341,84.26 95.2816,81.6412 Z"
                 sodipodi:nodetypes="cccc"
                 style="fill:#000000"
                 inkscape:connector-curvature="0" />
              <path
                 id="path6144"
                 d="m 100.4,161.54 3.7863,4.6882 -6.5483,-1.4766 z"
                 sodipodi:nodetypes="cccc"
                 style="fill:#000000"
                 inkscape:connector-curvature="0" />
              <path
                 id="path6146"
                 d="m 155.67,100.79 2.5832,5.7352 1.0504,-6.965 z"
                 sodipodi:nodetypes="cccc"
                 style="fill:#000000"
                 inkscape:connector-curvature="0" />
              <path
                 id="path6148"
                 sodipodi:nodetypes="cccc"
                 style="fill:#000000"
                 inkscape:connector-curvature="0"
                 d="m 168.73,95.81 3.1828,5.5323 1.0504,-6.965 z" />
              <path
                 id="path6150"
                 d="m 184.26,91.131 3.2031,6.4638 1.0788,-7.7438 z"
                 sodipodi:nodetypes="cccc"
                 style="fill:#000000"
                 inkscape:connector-curvature="0" />
              <path
                 id="path6152"
                 d="m 164.73,116.88 1.0762,-6.5778 3.1887,5.6643 z"
                 sodipodi:nodetypes="cccc"
                 style="fill:#000000"
                 inkscape:connector-curvature="0" />
              <path
                 id="path6154"
                 sodipodi:nodetypes="cccc"
                 style="fill:#000000"
                 inkscape:connector-curvature="0"
                 d="m 181.12,112.57 0.60115,-7.2277 3.3294,5.9713 z" />
              <path
                 id="path6156"
                 d="m 149.46,161.91 -11.716,-15.174 4.8848,10.345 z"
                 sodipodi:nodetypes="cccc"
                 style="fill:#000000"
                 inkscape:connector-curvature="0" />
              <path
                 id="path6158"
                 sodipodi:nodetypes="cccc"
                 style="fill:#000000"
                 inkscape:connector-curvature="0"
                 d="m 148.21,148.41 -11.716,-15.174 4.8848,10.345 z" />
              <path
                 id="path6160"
                 d="m 147.96,136.66 -11.716,-15.174 4.8848,10.345 z"
                 sodipodi:nodetypes="cccc"
                 style="fill:#000000"
                 inkscape:connector-curvature="0" />
              <path
                 id="path6162"
                 sodipodi:nodetypes="cccc"
                 style="fill:#000000"
                 inkscape:connector-curvature="0"
                 d="m 148.46,125.16 -11.716,-15.174 4.8848,10.345 z" />
              <path
                 id="path6164"
                 sodipodi:nodetypes="cccc"
                 style="fill:#000000"
                 inkscape:connector-curvature="0"
                 d="m 115.49,160.91 13.489,-15.174 -5.624,10.345 z" />
              <path
                 id="path6166"
                 d="m 116.93,147.41 13.489,-15.174 -5.624,10.345 z"
                 sodipodi:nodetypes="cccc"
                 style="fill:#000000"
                 inkscape:connector-curvature="0" />
              <path
                 id="path6168"
                 sodipodi:nodetypes="cccc"
                 style="fill:#000000"
                 inkscape:connector-curvature="0"
                 d="m 117.22,135.66 13.489,-15.174 -5.624,10.345 z" />
              <path
                 id="path6170"
                 d="m 116.64,124.16 13.489,-15.174 -5.624,10.345 z"
                 sodipodi:nodetypes="cccc"
                 style="fill:#000000"
                 inkscape:connector-curvature="0" />
              <path
                 id="path6172"
                 d="m 113.14,170.87 14.212,-5.8547 -7.5337,5.2332 z"
                 sodipodi:nodetypes="cccc"
                 style="fill:#000000"
                 inkscape:connector-curvature="0" />
              <path
                 id="path6174"
                 sodipodi:nodetypes="cccc"
                 style="fill:#000000"
                 inkscape:connector-curvature="0"
                 d="m 146.6,171.87 -14.212,-5.8547 7.5337,5.2332 z" />
              <path
                 id="path6176"
                 sodipodi:nodetypes="cccc"
                 style="fill:#000000"
                 inkscape:connector-curvature="0"
                 d="m 108.4,158.6 12.176,-9.3805 -8.2989,3.9078 z" />
              <path
                 id="path6178"
                 d="m 109.78,146.1 12.176,-9.3805 -8.2989,3.9078 z"
                 sodipodi:nodetypes="cccc"
                 style="fill:#000000"
                 inkscape:connector-curvature="0" />
              <path
                 id="path6180"
                 sodipodi:nodetypes="cccc"
                 style="fill:#000000"
                 inkscape:connector-curvature="0"
                 d="m 114.53,131.47 12.176,-9.3805 -8.2989,3.9078 z" />
              <path
                 id="path6182"
                 d="m 120.65,111.85 12.176,-9.3805 -8.2989,3.9078 z"
                 sodipodi:nodetypes="cccc"
                 style="fill:#000000"
                 inkscape:connector-curvature="0" />
              <path
                 id="path6184"
                 d="m 153.33,156.85 -12.176,-9.3805 8.2989,3.9078 z"
                 sodipodi:nodetypes="cccc"
                 style="fill:#000000"
                 inkscape:connector-curvature="0" />
              <path
                 id="path6186"
                 sodipodi:nodetypes="cccc"
                 style="fill:#000000"
                 inkscape:connector-curvature="0"
                 d="m 151.95,143.6 -12.176,-9.3805 8.2989,3.9078 z" />
              <path
                 id="path6188"
                 d="m 151.2,131.72 -12.176,-9.3805 8.2989,3.9078 z"
                 sodipodi:nodetypes="cccc"
                 style="fill:#000000"
                 inkscape:connector-curvature="0" />
              <path
                 id="path6190"
                 sodipodi:nodetypes="cccc"
                 style="fill:#000000"
                 inkscape:connector-curvature="0"
                 d="m 146.78,114.76 -9.3335,-12.212 7.0047,5.9225 z" />
              <path
                 id="path3195"
                 sodipodi:nodetypes="cccc"
                 style="fill:#000000"
                 inkscape:connector-curvature="0"
                 d="m 196.72,88.035 3.2031,6.4638 1.0788,-7.7438 z" />
              <path
                 id="path3197"
                 d="m 195.25,107.33 0.60115,-7.2277 3.3294,5.9713 z"
                 sodipodi:nodetypes="cccc"
                 style="fill:#000000"
                 inkscape:connector-curvature="0" />
              <path
                 id="path3251"
                 d="m 96.493,65.45 -3.3821,5.8614 8.1492,-0.68538 z"
                 sodipodi:nodetypes="cccc"
                 style="fill:#000000"
                 inkscape:connector-curvature="0" />
            </g>
          </g>
          <g
             id="g6277">
            <g
               id="g4422"
               transform="translate(-259.86,0.35355)">
              <g
                 id="g4132"
                 transform="translate(260,0)">
                <g
                   id="g4128">
                  <path
                     id="path4071"
                     d="m 149.29,50.631 c -13.389,12.742 -12.761,19.213 -7.8356,25.257 9.2988,4.1901 17.086,-10.251 24.829,-19.395 z"
                     sodipodi:nodetypes="cccc"
                     style="fill:url(#linearGradient4512)"
                     inkscape:connector-curvature="0" />
                  <path
                     id="path4094"
                     d="m 143.41,73.214 c -1.42,-3.118 7.35,-14.153 13.84,-15.292"
                     sodipodi:nodetypes="cc"
                     style="fill:none;stroke:#640000;stroke-width:2.5999999;stroke-linecap:round;filter:url(#filter4124)"
                     inkscape:connector-curvature="0" />
                </g>
                <g
                   id="g4081">
                  <g
                     id="g4064">
                    <path
                       id="path4054"
                       sodipodi:nodetypes="cccc"
                       style="fill:#ffffff;stroke:#000000;stroke-width:0.5"
                       inkscape:connector-curvature="0"
                       d="m 140.06,62.092 c -3.1965,18.509 7.9437,13.359 14.736,7.1463 -2.2755,10.174 -8.3124,13.22 -15.736,10.606 -5.2362,-5.1537 -6.7729,-11.266 1,-17.752 z" />
                    <path
                       id="path4056"
                       style="fill:none;stroke:#000000;stroke-width:0.5"
                       inkscape:connector-curvature="0"
                       d="m 146.66,74.476 0,3.3966" />
                    <path
                       id="path4058"
                       sodipodi:nodetypes="cc"
                       style="fill:none;stroke:#000000;stroke-width:0.5"
                       inkscape:connector-curvature="0"
                       d="m 141.94,74.41 -0.97842,2.9557" />
                    <path
                       id="path4060"
                       sodipodi:nodetypes="cc"
                       style="fill:none;stroke:#000000;stroke-width:0.5"
                       inkscape:connector-curvature="0"
                       d="M 139.55,69.273 135.8572,66.93" />
                    <path
                       id="path4062"
                       d="m 140.1,71.999 -4.9956,1.9237"
                       sodipodi:nodetypes="cc"
                       style="fill:none;stroke:#000000;stroke-width:0.5"
                       inkscape:connector-curvature="0" />
                  </g>
                  <g
                     id="g4013"
                     transform="translate(0.29517,0.29852)">
                    <path
                       id="path3994"
                       sodipodi:nodetypes="cscc"
                       style="fill:#ffffff;stroke:#000000;stroke-width:0.5"
                       inkscape:connector-curvature="0"
                       d="m 131.12,50.75 c 0,0 -2.5511,11.477 10,11.875 14.312,0.45345 13.355,-2.6498 12.625,-10.75 z" />
                    <path
                       id="path3996"
                       style="fill:none;stroke:#000000;stroke-width:0.5"
                       inkscape:connector-curvature="0"
                       d="m 134.27,60.602 0,-9.6954" />
                    <path
                       id="path3998"
                       d="m 146.4,62.596 0,-11.086"
                       style="fill:none;stroke:#000000;stroke-width:0.53465998"
                       inkscape:connector-curvature="0" />
                    <path
                       id="path4000"
                       style="fill:none;stroke:#000000;stroke-width:0.54374999"
                       inkscape:connector-curvature="0"
                       d="m 140.2,62.668 0,-11.467" />
                  </g>
                </g>
              </g>
              <g
                 id="g4383">
                <g
                   id="g4356">
                  <path
                     id="path3776"
                     d="m 389.93,28.445 c 0,0 -3.1828,-8.0082 -0.53033,-10.076 5.3039,-4.1353 9.0156,4.5962 9.0156,4.5962 0.22997,4.6939 -1.2268,7.8065 -8.4853,5.4801 z"
                     sodipodi:nodetypes="cscc"
                     style="color:#000000;fill:#dd8404;stroke:#000000;stroke-width:1px"
                     inkscape:connector-curvature="0" />
                  <path
                     id="path4294"
                     sodipodi:nodetypes="cscc"
                     style="color:#000000;fill:#854817;stroke:#000000;stroke-width:0.5;filter:url(#filter7516)"
                     inkscape:connector-curvature="0"
                     d="m 391.68,29.195 c 0,0 -3.8113,-8.6182 -0.78033,-10.076 4.1789,-2.0103 6.1406,7.3462 6.1406,7.3462 0.22997,4.6939 1.8982,5.0565 -5.3603,2.7301 z" />
                  <path
                     id="path7504"
                     sodipodi:nodetypes="cscc"
                     style="color:#000000;fill:#dd8404;stroke:#000000;stroke-width:1px"
                     inkscape:connector-curvature="0"
                     d="m 428.9,40.501 c 0,0 10.904,-4.4949 10.966,-7.8577 0.12264,-6.7243 -9.0885,-4.4504 -9.0885,-4.4504 -3.8918,2.6343 -8.0953,7.9005 -1.8772,12.308 z" />
                  <path
                     id="path7506"
                     d="m 427.43,38.748 c 0,0 11.591,-3.5549 10.937,-6.8542 -0.90134,-4.5488 -9.5616,-0.50011 -9.5616,-0.50011 -3.8918,2.6343 -7.5941,2.9465 -1.3757,7.3543 z"
                     sodipodi:nodetypes="cscc"
                     style="color:#000000;fill:#854817;stroke:#000000;stroke-width:0.5;filter:url(#filter7520)"
                     inkscape:connector-curvature="0" />
                </g>
                <path
                   id="path2987"
                   sodipodi:nodetypes="sscccccccss"
                   style="color:#000000;fill:#dd8404;stroke:#000000;stroke-width:1px"
                   inkscape:connector-curvature="0"
                   d="m 393,72.25 c -13.698,1.3156 -8.5861,27.154 6.9602,27.743 2.98,0.117 17.11,-0.979 15.79,-24.243 -0.54,-10.804 23.82,-20.149 13.75,-35.25 -0.14,-20.44 -5.11,-24.856 -15.94,-25.036 -2.2,-0.12 -4.21,-0.332 -6.09,-1.096 -5.64,-2.296 -12.24,-5.3994 -11.22,11.632 -29.332,1.455 -17.455,35.173 2,26 5.99,4.9682 13.351,8.0662 24.5,6 -7.6275,6.1021 -9.8374,18.004 -14.26,19.405 -9.85,3.12 -11.53,-5.536 -15.49,-5.155 z" />
                <path
                   id="path3786"
                   sodipodi:nodetypes="cscc"
                   style="color:#000000;fill:#000000"
                   inkscape:connector-curvature="0"
                   d="m 405.66,16.866 c 0.76015,-6.1366 0.40247,-14.061 -6.8943,-11.932 -5.6578,1.6507 -5.1436,9.3821 -1.6794,14.496 3.1208,-8.9523 5.8522,-6.8213 8.5737,-2.5633 z" />
                <path
                   id="path3788"
                   d="m 427.25,32.221 c 4.8767,-3.8017 7.1508,-14.006 0.48591,-17.661 -5.1679,-2.8335 -14.266,0.94455 -15.432,7.01 7.6419,-4.8254 16.818,2.6517 14.946,10.651 z"
                   sodipodi:nodetypes="cscc"
                   style="fill:#000000"
                   inkscape:connector-curvature="0" />
                <g
                   id="g3817"
                   transform="translate(200,0)">
                  <path
                     id="path3790"
                     d="m 211.25,32.865 c -1.6126,-4.9225 2.3482,-10.433 7.7782,-10.253 6.2856,0.20831 8.3392,11.602 6.1872,13.612 -4.4429,4.1485 -11.941,2.8207 -13.965,-3.3588 z"
                     sodipodi:nodetypes="ssss"
                     style="fill:#ffffff;stroke:#000000;stroke-width:0.5"
                     inkscape:connector-curvature="0" />
                  <path
                     id="path3792"
                     sodipodi:nodetypes="cscsc"
                     style="fill:url(#radialGradient4514);stroke:#000000;stroke-width:0.5"
                     inkscape:connector-curvature="0"
                     d="m 225.34,28.906 c 0.97586,3.0781 0.93361,6.3301 -0.12359,7.3172 -1.1338,1.0586 -2.4665,1.7607 -3.8564,2.1164 -4.5281,-0.49613 -5.1005,-5.0028 -3.2718,-8.2474 1.8316,-3.2496 6.0688,-5.2337 7.2517,-1.1862 z" />
                  <path
                     id="rect3794"
                     d="m 223.01,30.185 c 0.89806,0.32993 1.2036,1.7316 0.68515,3.1428 -0.5184,1.4112 -1.6588,2.2817 -2.5568,1.9517 -0.89805,-0.32993 -1.2036,-1.7316 -0.68514,-3.1428 0.5184,-1.4112 1.6588,-2.2817 2.5568,-1.9518 z"
                     style="color:#000000;fill:#000000"
                     inkscape:connector-curvature="0" />
                </g>
                <g
                   id="g3935"
                   transform="translate(260,0)">
                  <path
                     id="rect3837"
                     d="m 141.36,14.186 c 2.3767,-0.18916 4.6719,3.4163 5.1463,8.0841 0.47445,4.6678 -1.0569,8.5778 -3.4336,8.767 -2.3766,0.18915 -4.6719,-3.4163 -5.1463,-8.0841 -0.47445,-4.6678 1.0569,-8.5778 3.4336,-8.767 z"
                     style="color:#000000;fill:#ffffff;stroke:#000000;stroke-width:0.5"
                     inkscape:connector-curvature="0" />
                  <path
                     id="path3869"
                     sodipodi:nodetypes="csscc"
                     inkscape:connector-curvature="0"
                     style="color:#000000;fill:url(#radialGradient4516);stroke:#000000;stroke-width:0.5"
                     d="m 146.32,20.926 c 0.0803,0.43598 0.14453,0.88484 0.1912,1.344 0.47443,4.6678 -1.0569,8.5779 -3.4336,8.767 -0.61765,0.04916 -1.2298,-0.15798 -1.8059,-0.57344 -4.6492,-7.4713 4.1413,-13.028 5.0483,-9.5376 z" />
                  <path
                     id="rect3794-7"
                     style="color:#000000;fill:#000000"
                     inkscape:connector-curvature="0"
                     transform="matrix(0.93759,0,0,0.93759,8.9663,1.5821)"
                     d="m 144.61,22.804 c 0.89806,0.32993 1.2036,1.7316 0.68515,3.1428 -0.5184,1.4112 -1.6588,2.2817 -2.5568,1.9517 -0.89805,-0.32993 -1.2036,-1.7316 -0.68514,-3.1428 0.5184,-1.4112 1.6588,-2.2817 2.5568,-1.9518 z" />
                </g>
                <g
                   id="g3830"
                   transform="translate(260,0)">
                  <path
                     id="path3784"
                     d="m 138.5,47.449 c -8.9545,-8.4696 -10.839,-12.865 -12.404,-18.957 9.6084,-4.2479 21.186,-3.8984 28.402,10.736 -5.8335,1.6699 -11.571,3.5033 -15.998,8.2201 z"
                     sodipodi:nodetypes="cccc"
                     style="fill:url(#radialGradient4518);stroke:#000000;stroke-width:1px"
                     inkscape:connector-curvature="0" />
                </g>
                <path
                   id="path3940"
                   sodipodi:nodetypes="cc"
                   style="fill:none;stroke:#000000;stroke-width:1px;stroke-linecap:round"
                   inkscape:connector-curvature="0"
                   d="m 422.75,58 c 5.5285,-3.6339 6.435,-8.8917 3.2433,-15.59" />
                <path
                   id="path3942"
                   sodipodi:nodetypes="cc"
                   style="fill:none;stroke:#000000;stroke-width:1px"
                   inkscape:connector-curvature="0"
                   d="m 398.25,52 c -0.0356,-1.1959 -0.36141,-1.618 0.25454,-4.5514" />
                <path
                   id="path3944"
                   sodipodi:nodetypes="cc"
                   style="fill:none;stroke:#000000;stroke-width:1px;stroke-linecap:round"
                   inkscape:connector-curvature="0"
                   d="m 383.27,45.416 c -10.274,-1.4569 -16.105,2.4816 -19.799,9.0156" />
                <path
                   id="path3946"
                   sodipodi:nodetypes="cc"
                   style="fill:none;stroke:#000000;stroke-width:1px;stroke-linecap:round"
                   inkscape:connector-curvature="0"
                   d="M 382.03,40.819 C 375.96,35.874 369.66,34.215 363.12,35.87" />
                <path
                   id="path3948"
                   sodipodi:nodetypes="cc"
                   style="fill:none;stroke:#000000;stroke-width:1px;stroke-linecap:round"
                   inkscape:connector-curvature="0"
                   d="M 381.32,35.339 C 378.17,24.298 372.63,20.752 365.24,22.435" />
                <path
                   id="path3950"
                   sodipodi:nodetypes="cc"
                   style="fill:none;stroke:#000000;stroke-width:1px;stroke-linecap:round"
                   inkscape:connector-curvature="0"
                   d="m 422.16,47.537 c 13.126,0.56248 27.538,-0.01781 32.527,7.7782" />
                <path
                   id="path3952"
                   sodipodi:nodetypes="cc"
                   style="fill:none;stroke:#000000;stroke-width:1px;stroke-linecap:round"
                   inkscape:connector-curvature="0"
                   d="m 420.22,50.189 c 10.961,2.33 22.431,3.4224 30.229,13.435" />
                <path
                   id="path3954"
                   sodipodi:nodetypes="cc"
                   style="fill:none;stroke:#000000;stroke-width:1px;stroke-linecap:round"
                   inkscape:connector-curvature="0"
                   d="m 422.51,53.017 c 8.7443,8.2992 19.335,15.86 19.092,27.754" />
                <path
                   id="rect3973"
                   style="color:#000000;fill:#000000"
                   inkscape:connector-curvature="0"
                   d="m 382.35,35.883 c 0.4155,0 0.75,0.3345 0.75,0.75 0,0.4155 -0.3345,0.75 -0.75,0.75 -0.4155,0 -0.75,-0.3345 -0.75,-0.75 0,-0.4155 0.3345,-0.75 0.75,-0.75 z" />
                <path
                   id="path3976"
                   d="m 382.35,41.883 c 0.4155,0 0.75,0.3345 0.75,0.75 0,0.4155 -0.3345,0.75 -0.75,0.75 -0.4155,0 -0.75,-0.3345 -0.75,-0.75 0,-0.4155 0.3345,-0.75 0.75,-0.75 z"
                   style="color:#000000;fill:#000000"
                   inkscape:connector-curvature="0" />
                <path
                   id="path3978"
                   style="color:#000000;fill:#000000"
                   inkscape:connector-curvature="0"
                   d="m 384.35,45.883 c 0.4155,0 0.75,0.3345 0.75,0.75 0,0.4155 -0.3345,0.75 -0.75,0.75 -0.4155,0 -0.75,-0.3345 -0.75,-0.75 0,-0.4155 0.3345,-0.75 0.75,-0.75 z" />
                <path
                   id="path3980"
                   d="m 383.43,38.686 c 0.4155,0 0.75,0.3345 0.75,0.75 0,0.4155 -0.3345,0.75 -0.75,0.75 -0.4155,0 -0.75,-0.3345 -0.75,-0.75 0,-0.4155 0.3345,-0.75 0.75,-0.75 z"
                   style="color:#000000;fill:#000000"
                   inkscape:connector-curvature="0" />
                <path
                   id="path3982"
                   style="color:#000000;fill:#000000"
                   inkscape:connector-curvature="0"
                   d="m 384.97,42.258 c 0.4155,0 0.75,0.3345 0.75,0.75 0,0.4155 -0.3345,0.75 -0.75,0.75 -0.4155,0 -0.75,-0.3345 -0.75,-0.75 0,-0.4155 0.3345,-0.75 0.75,-0.75 z" />
                <path
                   id="path3984"
                   d="m 420.35,45.883 c 0.4155,0 0.75,0.3345 0.75,0.75 0,0.4155 -0.3345,0.75 -0.75,0.75 -0.4155,0 -0.75,-0.3345 -0.75,-0.75 0,-0.4155 0.3345,-0.75 0.75,-0.75 z"
                   style="color:#000000;fill:#000000"
                   inkscape:connector-curvature="0" />
                <path
                   id="path3986"
                   style="color:#000000;fill:#000000"
                   inkscape:connector-curvature="0"
                   d="m 420.35,51.883 c 0.4155,0 0.75,0.3345 0.75,0.75 0,0.4155 -0.3345,0.75 -0.75,0.75 -0.4155,0 -0.75,-0.3345 -0.75,-0.75 0,-0.4155 0.3345,-0.75 0.75,-0.75 z" />
                <path
                   id="path3988"
                   d="m 422.97,48.258 c 0.4155,0 0.75,0.3345 0.75,0.75 0,0.4155 -0.3345,0.75 -0.75,0.75 -0.4155,0 -0.75,-0.3345 -0.75,-0.75 0,-0.4155 0.3345,-0.75 0.75,-0.75 z"
                   style="color:#000000;fill:#000000"
                   inkscape:connector-curvature="0" />
                <path
                   id="path3990"
                   style="color:#000000;fill:#000000"
                   inkscape:connector-curvature="0"
                   d="m 423.97,44.883 c 0.4155,0 0.75,0.3345 0.75,0.75 0,0.4155 -0.3345,0.75 -0.75,0.75 -0.4155,0 -0.75,-0.3345 -0.75,-0.75 0,-0.4155 0.3345,-0.75 0.75,-0.75 z" />
                <path
                   id="path3992"
                   d="m 421.97,54.883 c 0.4155,0 0.75,0.3345 0.75,0.75 0,0.4155 -0.3345,0.75 -0.75,0.75 -0.4155,0 -0.75,-0.3345 -0.75,-0.75 0,-0.4155 0.3345,-0.75 0.75,-0.75 z"
                   style="color:#000000;fill:#000000"
                   inkscape:connector-curvature="0" />
              </g>
            </g>
            <g
               id="g6266">
              <path
                 id="path5755"
                 sodipodi:nodetypes="cccc"
                 style="fill:#000000"
                 inkscape:connector-curvature="0"
                 d="m 141.82,91.006 -1.721,9.3404 4.6796,-0.69204 z" />
              <path
                 id="path5757"
                 d="m 135.43,89.198 -7.3562,3.5681 3.4167,4.1021 z"
                 sodipodi:nodetypes="cccc"
                 style="fill:#000000"
                 inkscape:connector-curvature="0" />
              <path
                 id="path5759"
                 d="m 133.69,82.698 -8.4402,-1.2479 0.44298,5.4658 z"
                 sodipodi:nodetypes="cccc"
                 style="fill:#000000"
                 inkscape:connector-curvature="0" />
              <path
                 id="path5761"
                 d="m 147.64,87.152 2.7675,9.1075 3.2607,-4.7328 z"
                 sodipodi:nodetypes="cccc"
                 style="fill:#000000"
                 inkscape:connector-curvature="0" />
              <path
                 id="path5784"
                 d="m 140.89,49.305 19.799,-8.1317 -10.499,7.2762 z"
                 sodipodi:nodetypes="cccc"
                 style="fill:#000000"
                 inkscape:connector-curvature="0" />
              <path
                 id="path5786"
                 sodipodi:nodetypes="cccc"
                 style="fill:#000000"
                 inkscape:connector-curvature="0"
                 d="m 143.89,53.868 14.212,-5.8547 -7.5337,5.2332 z" />
              <path
                 id="path5788"
                 sodipodi:nodetypes="cccc"
                 style="fill:#000000"
                 inkscape:connector-curvature="0"
                 d="M 135.79,47.699 124.074,32.525 128.9588,42.87 Z" />
              <path
                 id="path5790"
                 d="m 135.37,52.038 -11.101,-7.6091 5.4958,5.8573 z"
                 sodipodi:nodetypes="cccc"
                 style="fill:#000000"
                 inkscape:connector-curvature="0" />
              <path
                 id="path5896"
                 d="m 148.25,29.125 0.625,-7.625 2.5,-3.875 z"
                 sodipodi:nodetypes="cccc"
                 style="fill:#000000"
                 inkscape:connector-curvature="0" />
            </g>
          </g>
        </g>
        <g
           id="g7576">
          <path
             id="path5303"
             d="m 260.17,558.98 c 2.2454,-1.5566 4.6701,-2.6982 7.8332,-2.8945"
             sodipodi:nodetypes="cc"
             style="fill:none;stroke:#000000;stroke-width:1px;stroke-linecap:round"
             inkscape:connector-curvature="0" />
          <path
             id="path5305"
             d="m 262.11,564.28 c 1.9769,-1.7336 3.9774,-3.4374 8.0163,-3.9109"
             sodipodi:nodetypes="cc"
             style="fill:none;stroke:#000000;stroke-width:1px;stroke-linecap:round"
             inkscape:connector-curvature="0" />
          <path
             id="path5307"
             d="m 267.92,568.2 c 2.0531,-1.6538 4.0932,-3.4391 7.5148,-4.2946"
             sodipodi:nodetypes="cc"
             style="fill:none;stroke:#000000;stroke-width:1px;stroke-linecap:round"
             inkscape:connector-curvature="0" />
          <path
             id="path5309"
             d="m 381.82,566.6 c -2.1334,-2.477 -4.4393,-3.2801 -6.6874,-4.1498"
             sodipodi:nodetypes="cc"
             style="fill:none;stroke:#000000;stroke-width:1px;stroke-linecap:round"
             inkscape:connector-curvature="0" />
          <path
             id="path5311"
             d="m 379.55,570.09 c -1.4838,-2.4032 -4.223,-3.3472 -6.271,-4.5091"
             sodipodi:nodetypes="cc"
             style="fill:none;stroke:#000000;stroke-width:1px;stroke-linecap:round"
             inkscape:connector-curvature="0" />
          <path
             id="path5313"
             d="m 375.09,573.03 c -1.3148,-2.1287 -3.6008,-3.3784 -5.961,-4.5777"
             sodipodi:nodetypes="cc"
             style="fill:none;stroke:#000000;stroke-width:1px;stroke-linecap:round"
             inkscape:connector-curvature="0" />
        </g>
      </g>
      <g
         id="g3237"
         transform="translate(-1124.5,1040.8)">
        <g
           id="g3227">
          <path
             id="path4710"
             sodipodi:nodetypes="cc"
             style="color:#000000;fill:#dd8404;stroke:#000000;stroke-width:3.14899993px;stroke-linecap:square"
             inkscape:connector-curvature="0"
             d="m 205.31,376.14 c 48.173,-30.026 6.9108,-83.301 -13.734,-26.933" />
          <path
             id="path3919"
             d="m 160.39,366.33 c -46.349,-17.478 6.951,-76.22 20.571,-19.286"
             sodipodi:nodetypes="cc"
             style="color:#000000;fill:#dd8404;stroke:#000000;stroke-width:3.14899993px;stroke-linecap:square"
             inkscape:connector-curvature="0" />
          <path
             id="path4706"
             sodipodi:nodetypes="cc"
             style="color:#000000;fill:#dd8404;stroke:#000000;stroke-width:3.14899993;stroke-linecap:square"
             inkscape:connector-curvature="0"
             d="m 126.09,420.77 c -67.834,-11.773 -5.7838,-63.984 17,-25" />
          <path
             id="path4708"
             d="m 144.13,394.26 c -53.018,-25.532 -0.53597,-71.437 17,-25"
             sodipodi:nodetypes="cc"
             style="color:#000000;fill:#dd8404;stroke:#000000;stroke-width:3.14899993px;stroke-linecap:square"
             inkscape:connector-curvature="0" />
        </g>
        <g
           id="g3207">
          <path
             id="path5428"
             sodipodi:nodetypes="cc"
             style="color:#000000;fill:#dd8404;stroke:#000000;stroke-width:3.14899993px;stroke-linecap:square"
             inkscape:connector-curvature="0"
             d="m 605.7,426.9 c 46.349,-17.478 -6.0581,-77.113 -19.679,-20.179" />
          <path
             id="path5430"
             d="m 639.99,481.34 c 67.834,-11.773 5.7838,-63.984 -17,-25"
             sodipodi:nodetypes="cc"
             style="color:#000000;fill:#dd8404;stroke:#000000;stroke-width:3.14899993px;stroke-linecap:square"
             inkscape:connector-curvature="0" />
          <path
             id="path5432"
             sodipodi:nodetypes="cc"
             style="color:#000000;fill:#dd8404;stroke:#000000;stroke-width:3.14899993px;stroke-linecap:square"
             inkscape:connector-curvature="0"
             d="m 621.96,454.83 c 53.018,-25.532 0.53597,-71.437 -17,-25" />
        </g>
      </g>
      <path
         id="path3695"
         d="m -993.69,1469.5 c -12.8,-30.945 26.58,-82.363 60.02,-80.565 15.194,0.8171 23.995,24.125 23.188,39.319 -1.0617,19.994 -17.324,40.553 -35.821,48.218 -14.749,6.1126 -41.284,7.7805 -47.387,-6.9728 z"
         sodipodi:nodetypes="aaaaa"
         style="color:#000000;fill:#dd8404;stroke:#000000;stroke-width:3.14899993px"
         inkscape:connector-curvature="0" />
      <path
         id="path3714"
         d="m -975,1442.7 c -8.4796,-17.694 0.87571,-40.543 26.071,-22.857 19.246,-18.979 43.735,4.6912 20.714,24.643 l -16.071,13.929 c -24.415,21.16 -52.337,6.3169 -30.714,-15.714 z"
         sodipodi:nodetypes="ccssc"
         style="color:#000000;fill:#000000"
         inkscape:connector-curvature="0" />
      <path
         id="path3695-3"
         d="m -548.99,1448.6 c 33.204,-4.3546 72.677,46.992 62.285,78.827 -4.7216,14.465 -29.513,16.933 -43.981,12.221 -19.038,-6.2005 -34.687,-27.229 -37.304,-47.08 -2.087,-15.829 3.1697,-41.891 19,-43.968 z"
         sodipodi:nodetypes="aaaaa"
         style="color:#000000;fill:#dd8404;stroke:#000000;stroke-width:3.14899993px"
         inkscape:connector-curvature="0" />
      <path
         id="path3714-0"
         d="m -528,1473.5 c 19.285,-3.6112 38.935,11.339 15.331,31.099 13.351,23.502 -15.851,41.031 -29.164,13.63 l -9.2944,-19.129 c -14.12,-29.06 7.4441,-52.189 23.128,-25.601 z"
         sodipodi:nodetypes="ccssc"
         style="color:#000000;fill:#000000"
         inkscape:connector-curvature="0" />
    </g>
    <text
       xml:space="preserve"
       style="font-style:normal;font-weight:normal;font-size:12.5px;line-height:125%;font-family:Sans;letter-spacing:0px;word-spacing:0px;fill:#000000;fill-opacity:1;stroke:none;stroke-width:1px;stroke-linecap:butt;stroke-linejoin:miter;stroke-opacity:1"
       x="241.78653"
       y="255.1841"
       id="text3572"
       sodipodi:linespacing="125%"><tspan
         sodipodi:role="line"
         x="241.78653"
         y="255.1841"
         id="tspan3576"
         style="font-style:italic;font-variant:normal;font-weight:normal;font-stretch:normal;font-size:30px;font-family:'Lucida Calligraphy';-inkscape-font-specification:'Lucida Calligraphy Italic'">Let's back to the code!</tspan></text>
  </g>
  <metadata
     id="metadata4039">
    <rdf:RDF>
      <cc:Work>
        <dc:format>image/svg+xml</dc:format>
        <dc:type
           rdf:resource="http://purl.org/dc/dcmitype/StillImage" />
        <cc:license
           rdf:resource="http://creativecommons.org/publicdomain/zero/1.0/" />
        <dc:publisher>
          <cc:Agent
             rdf:about="http://openclipart.org/">
            <dc:title>Openclipart</dc:title>
          </cc:Agent>
        </dc:publisher>
        <dc:title>Happy Tiger</dc:title>
        <dc:date>2012-11-13T17:02:31</dc:date>
        <dc:description>Funny little tiger. Drawn with Inkscape.</dc:description>
        <dc:source>https://openclipart.org/detail/173135/happy-tiger-by-azex-173135</dc:source>
        <dc:creator>
          <cc:Agent>
            <dc:title>azex</dc:title>
          </cc:Agent>
        </dc:creator>
        <dc:subject>
          <rdf:Bag>
            <rdf:li>cat</rdf:li>
            <rdf:li>happy</rdf:li>
            <rdf:li>nature</rdf:li>
            <rdf:li>tiger</rdf:li>
            <rdf:li>wild</rdf:li>
          </rdf:Bag>
        </dc:subject>
      </cc:Work>
      <cc:License
         rdf:about="http://creativecommons.org/publicdomain/zero/1.0/">
        <cc:permits
           rdf:resource="http://creativecommons.org/ns#Reproduction" />
        <cc:permits
           rdf:resource="http://creativecommons.org/ns#Distribution" />
        <cc:permits
           rdf:resource="http://creativecommons.org/ns#DerivativeWorks" />
      </cc:License>
    </rdf:RDF>
  </metadata>
</svg>
