<?xml version="1.0" encoding="UTF-8" standalone="no"?>
<!-- Created with Inkscape (http://www.inkscape.org/) -->

<svg
   xmlns:dc="http://purl.org/dc/elements/1.1/"
   xmlns:cc="http://creativecommons.org/ns#"
   xmlns:rdf="http://www.w3.org/1999/02/22-rdf-syntax-ns#"
   xmlns:svg="http://www.w3.org/2000/svg"
   xmlns="http://www.w3.org/2000/svg"
   xmlns:xlink="http://www.w3.org/1999/xlink"
   xmlns:sodipodi="http://sodipodi.sourceforge.net/DTD/sodipodi-0.dtd"
   xmlns:inkscape="http://www.inkscape.org/namespaces/inkscape"
   id="svg1"
   sodipodi:docname="JPA.svg"
   inkscape:export-filename="C:\Documents and Settings\All Users\Documents\Ubuntu Brig\Andy Fitzsimon\gnome-mime-text-x-java.png"
   viewBox="0 0 137.15165 152.69512"
   sodipodi:version="0.32"
   inkscape:export-xdpi="90"
   version="1.1"
   inkscape:output_extension="org.inkscape.output.svg.inkscape"
   inkscape:export-ydpi="90"
   inkscape:version="0.91 r13725"
   width="137.15166"
   height="152.69511">
  <defs
     id="defs3">
    <linearGradient
       id="linearGradient852"
       y2="72.550003"
       xlink:href="#linearGradient841"
       gradientUnits="userSpaceOnUse"
       y1="48.48"
       gradientTransform="matrix(0.97044,0,0,0.74256,-0.1522725,6.8190711)"
       x2="112.27"
       x1="111.12" />
    <linearGradient
       id="linearGradient844"
       y2="49.388"
       xlink:href="#linearGradient841"
       gradientUnits="userSpaceOnUse"
       x2="66.747002"
       gradientTransform="matrix(0.70215,0,0,1.0263,-0.1522725,6.8190711)"
       y1="49.388"
       x1="46.352001" />
    <linearGradient
       id="linearGradient845"
       y2="60.883999"
       xlink:href="#linearGradient841"
       gradientUnits="userSpaceOnUse"
       y1="60.485001"
       gradientTransform="matrix(0.64381,0,0,1.1193,-0.1522725,6.8190711)"
       x2="123.65"
       x1="158.27" />
    <linearGradient
       id="linearGradient840"
       y2="104.05"
       xlink:href="#linearGradient853"
       gradientUnits="userSpaceOnUse"
       y1="100.73"
       gradientTransform="matrix(0.96668,0,0,0.74545,-0.1522725,6.8190711)"
       x2="44.804001"
       x1="12.205" />
    <linearGradient
       id="linearGradient849"
       y2="93.217003"
       xlink:href="#linearGradient846"
       gradientUnits="userSpaceOnUse"
       y1="91.169998"
       gradientTransform="matrix(1.0357,0,0,0.69577,-0.1522725,6.8190711)"
       x2="111.19"
       x1="31.400999" />
    <radialGradient
       id="radialGradient864"
       fy="147.88"
       xlink:href="#linearGradient853"
       gradientUnits="userSpaceOnUse"
       cy="164.71001"
       cx="50.883999"
       gradientTransform="matrix(1.2856,0,0,0.56053,-0.1522725,6.8190711)"
       r="24.000999" />
    <linearGradient
       id="linearGradient841">
      <stop
         id="stop842"
         style="stop-color:#ffffff"
         offset="0" />
      <stop
         id="stop843"
         style="stop-color:#ffffff;stop-opacity:0"
         offset="1" />
    </linearGradient>
    <linearGradient
       id="linearGradient860"
       y2="64.800003"
       gradientUnits="userSpaceOnUse"
       x2="38.935001"
       gradientTransform="matrix(1.6757,0,0,0.43003,-0.1522725,6.8190711)"
       y1="118.07"
       x1="38.09">
      <stop
         id="stop1291"
         style="stop-color:#b2a269"
         offset="0" />
      <stop
         id="stop1292"
         style="stop-color:#6d5b18"
         offset="1" />
    </linearGradient>
    <linearGradient
       id="linearGradient851"
       y2="85.030998"
       xlink:href="#linearGradient846"
       gradientUnits="userSpaceOnUse"
       y1="83.624001"
       gradientTransform="matrix(1.5134,0,0,0.47615,-0.1522725,6.8190711)"
       x2="56.192001"
       x1="38.806999" />
    <linearGradient
       id="linearGradient858"
       y2="54.648998"
       xlink:href="#linearGradient846"
       gradientUnits="userSpaceOnUse"
       y1="96.857002"
       gradientTransform="matrix(0.8,0,0,0.90077,-0.1522725,6.8190711)"
       x2="129.33"
       x1="131.81" />
    <linearGradient
       id="linearGradient846">
      <stop
         id="stop847"
         style="stop-color:#e7e7e7"
         offset="0" />
      <stop
         id="stop848"
         style="stop-color:#a5a5a5"
         offset="1" />
    </linearGradient>
    <linearGradient
       id="linearGradient850"
       y2="64.445"
       xlink:href="#linearGradient846"
       gradientUnits="userSpaceOnUse"
       x2="68.793999"
       gradientTransform="matrix(1.4429,0,0,0.49942,-0.1522725,6.8190711)"
       y1="64.445"
       x1="22.179001" />
    <linearGradient
       id="linearGradient859"
       y2="197.14"
       xlink:href="#linearGradient853"
       gradientUnits="userSpaceOnUse"
       y1="1.1694"
       gradientTransform="matrix(1.1769,0,0,0.61227,-0.1522725,6.8190711)"
       x2="37.213001"
       x1="133.67999" />
    <linearGradient
       id="linearGradient853">
      <stop
         id="stop854"
         style="stop-color:#000000;stop-opacity:.29752"
         offset="0" />
      <stop
         id="stop855"
         style="stop-color:#000000;stop-opacity:0"
         offset="1" />
    </linearGradient>
    <radialGradient
       id="radialGradient861"
       fx="51.139"
       fy="152.03999"
       xlink:href="#linearGradient853"
       gradientUnits="userSpaceOnUse"
       cy="171.42"
       cx="50.459999"
       gradientTransform="matrix(1.3198,0,0,0.76357098,-0.1522725,-15.994619)"
       r="48.174999" />
    <linearGradient
       id="linearGradient1507">
      <stop
         id="stop1508"
         style="stop-color:#000000;stop-opacity:.095506"
         offset="0" />
      <stop
         id="stop1510"
         style="stop-color:#000000;stop-opacity:0"
         offset="1" />
    </linearGradient>
    <linearGradient
       id="linearGradient1492">
      <stop
         id="stop1493"
         style="stop-color:#dadada"
         offset="0" />
      <stop
         id="stop1496"
         style="stop-color:#f1f1f1"
         offset=".34923" />
      <stop
         id="stop1494"
         style="stop-color:#f0f0f0"
         offset="1" />
    </linearGradient>
    <linearGradient
       id="linearGradient1495"
       y2="689.85999"
       xlink:href="#linearGradient1492"
       gradientUnits="userSpaceOnUse"
       y1="230.07001"
       gradientTransform="matrix(0.28345093,0,0,0.31680598,-85.577418,-41.107761)"
       x2="351.70999"
       x1="728.96002" />
    <linearGradient
       id="linearGradient1497"
       y2="287.73001"
       xlink:href="#linearGradient1492"
       gradientUnits="userSpaceOnUse"
       y1="169.44"
       gradientTransform="matrix(0.28342,0,0,0.31058,-85.582384,-40.289931)"
       x2="622.34998"
       x1="741.65002" />
    <linearGradient
       id="linearGradient1499"
       y2="418.54001"
       gradientUnits="userSpaceOnUse"
       x2="330.88"
       gradientTransform="matrix(0.28459764,0,0,0.25141103,-78.943899,-31.887591)"
       y1="236.13"
       x1="687.96002">
      <stop
         id="stop1502"
         style="stop-color:#ffffff"
         offset="0" />
      <stop
         id="stop1504"
         style="stop-color:#ffffff;stop-opacity:0"
         offset="1" />
    </linearGradient>
    <linearGradient
       id="linearGradient1506"
       y2="383.76001"
       xlink:href="#linearGradient1507"
       gradientUnits="userSpaceOnUse"
       y1="843.20001"
       gradientTransform="scale(0.94469,1.0585)"
       x2="547.81"
       x1="201.39" />
    <linearGradient
       id="linearGradient1556"
       y2="-69.638"
       xlink:href="#linearGradient1507"
       gradientUnits="userSpaceOnUse"
       y1="-117.11"
       gradientTransform="scale(0.59093,1.6922)"
       x2="126.79"
       x1="115.92" />
    <radialGradient
       id="radialGradient856"
       gradientUnits="userSpaceOnUse"
       fx="35.230999"
       fy="202.27"
       xlink:href="#linearGradient841"
       cx="34.129002"
       cy="131.97"
       r="14.611"
       gradientTransform="scale(2.2802,0.43855)" />
    <linearGradient
       id="linearGradient3051"
       y2="389.17999"
       xlink:href="#linearGradient1507"
       gradientUnits="userSpaceOnUse"
       x2="544.78998"
       gradientTransform="scale(0.94318,1.0602)"
       y1="836.03003"
       x1="207.87"
       inkscape:collect="always" />
    <linearGradient
       id="linearGradient3053"
       y2="386.48001"
       xlink:href="#linearGradient1507"
       gradientUnits="userSpaceOnUse"
       x2="546.28998"
       gradientTransform="scale(0.94395,1.0594)"
       y1="839.62"
       x1="204.63"
       inkscape:collect="always" />
    <linearGradient
       inkscape:collect="always"
       xlink:href="#linearGradient1507"
       id="linearGradient4367"
       gradientUnits="userSpaceOnUse"
       gradientTransform="scale(0.94469,1.0585)"
       x1="201.39"
       y1="843.20001"
       x2="547.81"
       y2="383.76001" />
  </defs>
  <sodipodi:namedview
     id="base"
     bordercolor="#666666"
     inkscape:pageshadow="2"
     inkscape:window-y="37"
     pagecolor="#ffffff"
     inkscape:window-maximized="0"
     inkscape:window-width="1366"
     inkscape:zoom="2.1395845"
     inkscape:window-x="0"
     showgrid="true"
     borderopacity="1.0"
     inkscape:current-layer="svg1"
     inkscape:cx="-20.032142"
     inkscape:cy="44.63995"
     inkscape:window-height="731"
     inkscape:pageopacity="0.0"
     fit-margin-top="0"
     fit-margin-left="0"
     fit-margin-right="0"
     fit-margin-bottom="0">
    <inkscape:grid
       type="xygrid"
       id="grid4369"
       originx="-0.33049291"
       originy="2.3145761" />
  </sodipodi:namedview>
  <path
     id="path930"
     inkscape:connector-curvature="0"
     sodipodi:nodetypes="cccccccccccccccc"
     style="fill:#ffffff;fill-rule:evenodd;stroke-width:0.42649001;stroke-opacity:0.36478002"
     d="m 2.7727174,0.09722607 0,127.13072393 134.1099926,0 0,-95.348044 -33.53,-31.78267993 -33.524994,2.6e-4 -67.0529986,0 z" />
  <g
     id="g1552"
     style="fill:url(#linearGradient1506)"
     transform="matrix(0.30343235,0,0,0.30415538,-50.636798,-122.36475)">
    <path
       id="path1505"
       inkscape:connector-curvature="0"
       sodipodi:nodetypes="cccccccccccccccc"
       style="fill:url(#linearGradient3051);fill-opacity:0.75;fill-rule:evenodd;stroke-width:0.95407pt"
       d="m 173.36,408.81 0,489.05 435.05,0 0,-366.79 -108.76,-122.26 -326.29,0 z" />
    <path
       id="path1538"
       style="fill:url(#linearGradient3053);fill-opacity:0.75;fill-rule:evenodd;stroke-width:0.95407pt"
       inkscape:connector-curvature="0"
       d="m 170.12,407.19 0,493.9 441.54,0 0,-371.28 C 574.81,488.39 537.98,446.95 501.09,405.56 l -330.97,0 0,1.63 z" />
    <path
       id="path1543"
       style="fill:url(#linearGradient4367);fill-opacity:0.75;fill-rule:evenodd;stroke-width:0.95407pt"
       inkscape:connector-curvature="0"
       d="m 166.88,403.94 0,500.4 448.03,0 0,-375.78 C 577.46,486.47 540.02,444.37 502.53,402.31 l -335.65,0 0,1.63 z" />
  </g>
  <path
     id="rect900"
     inkscape:connector-curvature="0"
     sodipodi:nodetypes="cccccccccccccccc"
     style="fill:url(#linearGradient1495);fill-rule:evenodd;stroke:#000000;stroke-width:0.43077138;stroke-opacity:0.36478002"
     d="m 2.8305558,0.28141407 0,149.93014593 134.1057142,0 0,-112.44761 -33.52893,-37.47947493 -100.5767842,0 z" />
  <path
     id="path906"
     inkscape:connector-curvature="0"
     sodipodi:nodetypes="cccc"
     style="fill:url(#linearGradient1497);fill-rule:evenodd;stroke-width:0.95407pt"
     d="m 136.93961,37.01807 c -10.11,-2.99 -23.21,-2.566 -33.1,-0.86 1.71,-10.963 1.92,-24.702 -0.43,-35.87899893 l 33.53,36.73899893 z" />
  <path
     id="path1500"
     inkscape:connector-curvature="0"
     sodipodi:nodetypes="cccczc"
     style="fill:url(#linearGradient1499);fill-rule:evenodd;stroke-width:1pt"
     d="m 7.7610524,11.602936 -0.5870802,112.878934 127.7163678,0 0.072,-27.90336 C 132.11081,97.525523 103.25629,62.216177 66.932589,63.735589 30.576872,65.255 39.983928,16.151952 7.7638651,11.59707 Z" />
  <g
     id="g1285"
     style="fill-opacity:0.03999999"
     transform="matrix(0.84889,0,0,0.85342,-155.39039,-71.743931)">
    <path
       id="path1258"
       style="fill-rule:evenodd;stroke-width:1pt"
       inkscape:connector-curvature="0"
       d="m 262.66,133.6 c -26.77,0.04 -40.1,8.94 -40.25,13.34 0,0.15 0.05,0.34 0.06,0.5 0,-0.09 -0.06,-0.16 -0.06,-0.25 -0.73,8.55 0.26,16.47 2.44,23.44 -10.99,5.14 -17.85,12.16 -17.94,18.87 0,0.12 -0.03,0.23 -0.03,0.35 -0.12,0.67 -0.2,1.34 -0.19,2 0.26,12.11 7.73,32.26 56.66,31.15 45.49,-0.73 53.56,-20.24 54.53,-31.21 0,-0.04 0.03,-0.07 0.03,-0.1 0.14,-0.86 0.13,-1.57 0.19,-2.34 0.05,-0.67 0.15,-1.44 0.15,-2.03 0.02,-2.99 -2.72,-6.4 -7.09,-9.72 5.28,-3.81 9.44,-8.42 9.44,-13.75 0,-15.11 -13.22,-11.63 -13.22,-11.63 l -5.56,2.1 c 0.14,-2.05 0.27,-4.1 0.25,-6.22 -0.13,0.32 -0.45,0.6 -0.63,0.9 0.13,-0.49 0.21,-0.96 0.16,-1.37 -0.48,-3.93 -12.39,-14.07 -38.94,-14.03 z m -39.47,16.44 c 0.11,0.24 0.18,0.47 0.31,0.71 -0.13,-0.23 -0.2,-0.48 -0.31,-0.71 z m 88.38,5.15 c 1.74,0.16 3.36,1.26 4.62,3.94 2.57,5.45 -3.42,11.02 -9.94,15.22 -2.24,-1.29 -4.7,-2.53 -7.43,-3.69 0.88,-2.76 1.52,-5.71 2.06,-8.75 1.34,-1.62 6.17,-7.14 10.69,-6.72 z" />
    <path
       id="path1262"
       style="fill-rule:evenodd;stroke-width:1pt"
       inkscape:connector-curvature="0"
       d="m 253.47,135.62 c -10.12,1.46 -21.37,2.75 -28.97,10.35 -1.07,4.97 -0.22,10.08 -0.03,15.44 0.34,4.54 4.97,10.99 -1.84,12.32 -8.03,4.11 -16.63,12.11 -13.76,22.09 2.43,15.09 18.68,23.03 32.63,24.03 17.59,2.56 35.97,1.81 53,-3.47 12.47,-4.09 23.27,-15.87 21.81,-29.63 0.07,-4.77 -7.18,-5.37 -6.43,-9.87 4.75,-4.15 10.6,-9.29 8.71,-16.41 1.2,-3.42 -8.43,-8.43 -4,-5.72 5.93,4.03 3.97,13.16 -1.73,16.47 -2.65,3.38 -7.06,5.98 -11.02,3 -5.9,-1.66 -4.57,-8.61 -2.09,-12.65 2.05,-4.41 6.87,-7.42 11.69,-7.88 -3.83,-1.81 -8.35,4.44 -11.25,0.93 0.18,-4.93 -0.87,-10.66 -6.32,-12.35 -12.03,-7.28 -26.8,-7.13 -40.4,-6.65 z" />
    <path
       id="path1265"
       style="fill-rule:evenodd;stroke-width:1pt"
       inkscape:connector-curvature="0"
       d="m 253.19,132.38 c -11.13,1.66 -24.12,2.97 -31.66,12.31 -2.22,8.25 -0.06,16.87 1.19,24.97 -6.22,4.08 -13.92,8.1 -16.31,15.84 -4.57,12.21 3.75,25.7 14.53,31.48 14.54,7.81 31.8,7.79 47.92,7.25 16.13,-1.14 34.71,-4 45.03,-17.87 4.59,-6.64 7.96,-16.2 4.29,-23.92 -1.95,-2.82 -6.71,-5.06 -1.36,-7.55 7.57,-5.93 7.35,-20.67 -2.52,-24.01 -3.65,-1.71 -7.14,-0.11 -10.71,0.87 0.98,-3.76 -0.44,-6.82 -3.4,-9.13 -13.16,-10.59 -30.92,-10.92 -47,-10.24 z m 59.93,25.21 c 5.18,5.4 -2.22,12.59 -7.34,14.41 -4.49,0.36 -6.16,-4.6 -3.54,-7.73 1.38,-4.05 6.4,-8.39 10.88,-6.68 z" />
    <path
       id="path1272"
       style="fill-rule:evenodd;stroke-width:1pt"
       inkscape:connector-curvature="0"
       d="m 244.22,132.12 c -8.96,1.71 -18.85,4.45 -24.31,12.32 -1.84,8.11 -0.2,16.34 1.03,24.4 -9.04,5.2 -18.94,13.81 -17.1,25.41 0.99,16.16 16.63,27.27 31.62,29.5 18.84,3.72 38.6,2.7 57.23,-1.66 14.87,-4.15 29.2,-17.05 28.42,-33.53 0,-3.94 -1.58,-8.08 -4.64,-10.65 3.35,-3.94 7.41,-8.03 7.22,-13.72 1.09,-9.12 -7.88,-18.22 -17.13,-15.02 -2.3,-0.45 -1.73,-5.7 -4.86,-7.11 -13.4,-11.74 -32.61,-11.73 -49.44,-11.18 -2.68,0.41 -5.36,0.83 -8.04,1.24 z m 67.87,26.94 c 3.36,4.9 -3.82,11.73 -8.43,10.41 -2.4,-4.36 3.83,-11.21 8.43,-10.41 z" />
  </g>
  <path
     id="path834"
     inkscape:connector-curvature="0"
     sodipodi:nodetypes="czzzz"
     style="fill:url(#radialGradient861);fill-rule:evenodd;stroke-width:1.12650003pt"
     d="M 2.8659174,112.08578 C 2.5665174,96.302803 28.549916,78.727006 63.214916,78.127068 c 35.02,-0.599937 66.874994,18.175735 66.814994,30.756242 -0.0594,12.98732 -6.6468,41.75091 -62.499994,42.7494 -55.862,1.39846 -64.3639986,-24.1793 -64.6639986,-39.54833 z" />
  <path
     id="path832"
     inkscape:connector-curvature="0"
     sodipodi:nodetypes="czzzz"
     style="fill:#ffffff;fill-rule:evenodd;stroke-width:1pt"
     d="m 18.522616,88.45607 c -0.223,-10.548999 19.098,-22.301 44.874,-22.702 26.043,-0.401 49.722994,12.153001 49.682994,20.567001 -0.05,8.684999 -4.95,27.914999 -46.478994,28.574999 -41.534,0.94 -47.856,-16.15 -48.078,-26.44 z" />
  <path
     id="path866"
     inkscape:connector-curvature="0"
     sodipodi:nodetypes="czzzz"
     style="fill:url(#linearGradient859);fill-rule:evenodd;stroke-width:1pt"
     d="m 18.675616,86.751071 c -0.223,-10.551 19.098,-22.304001 44.874,-22.704001 26.043,-0.401 49.729994,12.153001 49.679994,20.568001 -0.0509,8.680799 -4.949,27.907999 -46.479994,28.578999 -41.534,0.93378 -47.856,-16.163 -48.079,-26.441999 z" />
  <path
     id="path862"
     inkscape:connector-curvature="0"
     sodipodi:nodetypes="czzzz"
     style="fill:url(#radialGradient864);fill-rule:evenodd;stroke-width:1.12650003pt"
     d="m 34.409616,98.10607 c -0.14516,-5.764 12.465,-12.196999 29.288,-12.415999 16.997,-0.21901 32.456,6.651899 32.423,11.252999 -0.02547,4.7453 -3.2258,15.263 -30.331,15.628 -27.108,0.51782 -31.235,-8.8369 -31.38,-14.465 z" />
  <g
     id="g1945"
     transform="matrix(0.9017,0,0,0.9017,-1.2252726,150.54607)">
    <path
       id="path830"
       style="fill:url(#radialGradient856);fill-rule:evenodd;stroke-width:1pt"
       d="m 51.104,58.728 c 12.01,-4.72 33.662,-7.97 50.546,-0.418 2.66,1.791 8.55,-0.534 6.09,-2.414 -5.5,-4.72 -21.631,-8.522 -31.621,-8.496 -9.99,0.027 -22.812,2.78 -28.318,8.653 -1.569,1.782 0.978,4.008 3.303,2.675 z"
       sodipodi:nodetypes="ccczcc"
       inkscape:connector-curvature="0"
       transform="matrix(0.94144,0,0,0.94144,1.1899,-148.31)" />
    <path
       id="path1936"
       inkscape:connector-curvature="0"
       sodipodi:nodetypes="czczc"
       style="fill:url(#linearGradient1556);fill-rule:evenodd;stroke-width:1pt"
       d="m 68.994,-105.84 c -2.592,-14.25 -10.42,-11.63 -5.101,-23.22 5.064,-11.04 10.254,-18.29 0.541,-35.88 19.095,8.12 9.348,24.74 16.1,37.44 6.891,12.94 -4.062,12.44 -11.54,21.66 z" />
    <path
       id="path1937"
       inkscape:connector-curvature="0"
       sodipodi:nodetypes="czcc"
       style="fill:#000000;fill-opacity:0.04402502;fill-rule:evenodd;stroke-width:1pt"
       d="m 83.067,-135.61 c 0,0 3.213,-4.93 -0.83,-9.99 -3.984,-4.98 6.706,-6.11 4.062,-19.92 10.737,1.73 7.144,30.75 -3.232,29.91 z" />
  </g>
  <path
     id="path828"
     inkscape:connector-curvature="0"
     sodipodi:nodetypes="czzzz"
     style="fill:url(#linearGradient850);fill-rule:evenodd;stroke-width:1pt"
     d="m 31.849616,50.33607 c 0.125,-3.737 11.458,-11.301 34.186,-11.332 22.538,-0.032 32.64,8.562 33.056,11.899 0.407,3.337 -5.229,10.544 -34.189,11.332 -29.149,0.787 -33.044,-8.162 -33.053,-11.899 z" />
  <path
     id="path826"
     inkscape:connector-curvature="0"
     sodipodi:nodetypes="cccccccc"
     style="fill:url(#linearGradient858);fill-rule:evenodd;stroke-width:1pt"
     d="m 97.851616,63.75107 c 0,0 9.346294,-12.153 13.624994,-3.0713 4.2699,9.081401 -19.498994,18.697001 -19.498994,18.697001 l -4.5416,6.4108 c 0,0 27.775994,-8.2801 27.775994,-21.102001 0,-12.821 -11.214,-9.8828 -11.214,-9.8828 l -5.611194,2.1375 -0.5348,6.8106 z" />
  <path
     id="path827"
     inkscape:connector-curvature="0"
     sodipodi:nodetypes="czzzz"
     style="fill:url(#linearGradient851);fill-rule:evenodd;stroke-width:1pt"
     d="m 33.177616,51.31107 c -0.41,-3.336 11.835,-10.923 31.73,-11.144 20.084,-0.219 31.697,6.485 32.104,9.822 0.416,3.337 -5.034,9.412 -29.648,10.2 -24.428,0.786 -33.777,-5.541 -34.186,-8.878 z" />
  <path
     id="path829"
     inkscape:connector-curvature="0"
     sodipodi:nodetypes="czzzz"
     style="fill:url(#linearGradient860);fill-rule:evenodd;stroke-width:1pt"
     d="m 36.388616,55.08807 c -0.44057,-2.455 8.8913,-9.3488 27.008,-9.4431 18.25,-0.22835 29.965,6.421 30.406,8.8768 0.44142,2.455 -16.991,5.6264 -27.762,5.8548 -10.771,0.095 -29.212,-2.832 -29.652,-5.288 z" />
  <path
     id="path831"
     inkscape:connector-curvature="0"
     sodipodi:nodetypes="czzcc"
     style="fill:url(#linearGradient849);fill-rule:evenodd;stroke-width:1pt"
     d="m 31.855616,50.55507 c -1.6995,19.957001 7.5865,36.012001 18.698,41.738 11.112,5.73 21.594,4.7538 31.541,-1.1307 9.951,-5.888999 17.625,-21.281999 17.379,-39.855 -5.051,13.021 -67.178,15.551 -67.618,-0.756 z" />
  <path
     id="path833"
     inkscape:connector-curvature="0"
     sodipodi:nodetypes="czzzz"
     style="fill:url(#linearGradient840);fill-rule:evenodd;stroke-width:1pt"
     d="m 35.349616,100.21607 c -8.7249,-0.49235 -17.05,-5.348 -14.691,-14.960999 2.3599,-9.8828 17.985,-14.913 24.307,-14.691 6.3208,0.22241 15.18,11.218 13.622,16.026 -1.5586,4.808099 -14.246,14.380999 -23.238,13.625999 z" />
  <path
     id="path835"
     inkscape:connector-curvature="0"
     sodipodi:nodetypes="cczzc"
     style="fill:url(#linearGradient845);fill-rule:evenodd;stroke-width:1pt"
     d="m 77.561616,73.031071 c 2.6443,-0.94396 14.543,-1.6995 17.183,-13.410001 1.3243,10.577001 -2.1307,15.567001 -3.3956,18.509001 -1.2648,3.1316 -11.619,13.984999 -11.899,11.520999 l -1.8888,-16.619999 z" />
  <path
     id="path836"
     inkscape:connector-curvature="0"
     sodipodi:nodetypes="czzzz"
     style="fill:url(#linearGradient844);fill-rule:evenodd;stroke-width:1pt"
     d="m 35.821616,72.843071 c -1.826,-1.952 -4.155,-17.377001 -3.211,-15.110001 0.75551,2.2665 7.9329,6.2011 10.577,5.477 2.455,-0.72325 5.9176,13.316001 1.1333,14.921001 -4.9736,1.6053 -6.674,-3.5254 -8.4999,-5.2877 z" />
  <path
     id="path857"
     inkscape:connector-curvature="0"
     sodipodi:nodetypes="cccccc"
     style="fill:url(#linearGradient852);fill-rule:evenodd;stroke-width:1pt"
     d="m 99.430616,56.86107 -0.27164,2.6715 c -0.40747,2.5373 8.735094,-8.6969 13.140994,1.4524 0.43293,2.3973 -0.0255,5.4371 -0.0255,5.4371 0,0 2.5127,-2.8803 2.0034,-5.6095 -3.0051,-9.9082 -12.963,-4.8013 -14.846994,-3.9516 z" />
  <metadata
     id="metadata74">
    <rdf:RDF>
      <cc:Work>
        <dc:format>image/svg+xml</dc:format>
        <dc:type
           rdf:resource="http://purl.org/dc/dcmitype/StillImage" />
        <cc:license
           rdf:resource="http://creativecommons.org/publicdomain/zero/1.0/" />
        <dc:publisher>
          <cc:Agent
             rdf:about="http://openclipart.org/">
            <dc:title>Openclipart</dc:title>
          </cc:Agent>
        </dc:publisher>
        <dc:title></dc:title>
      </cc:Work>
      <cc:License
         rdf:about="http://creativecommons.org/publicdomain/zero/1.0/">
        <cc:permits
           rdf:resource="http://creativecommons.org/ns#Reproduction" />
        <cc:permits
           rdf:resource="http://creativecommons.org/ns#Distribution" />
        <cc:permits
           rdf:resource="http://creativecommons.org/ns#DerivativeWorks" />
      </cc:License>
    </rdf:RDF>
  </metadata>
  <text
     xml:space="preserve"
     style="font-style:normal;font-weight:normal;font-size:12.5px;line-height:125%;font-family:Sans;text-align:center;letter-spacing:0px;word-spacing:0px;text-anchor:middle;fill:#000000;fill-opacity:1;stroke:none;stroke-width:1px;stroke-linecap:butt;stroke-linejoin:miter;stroke-opacity:1"
     x="65.538567"
     y="82.513596"
     id="text3559"
     sodipodi:linespacing="125%"><tspan
       sodipodi:role="line"
       x="65.538567"
       y="82.513596"
       id="tspan3563"
       style="font-style:italic;font-variant:normal;font-weight:normal;font-stretch:normal;font-family:'Helvetica Neue';-inkscape-font-specification:'Helvetica Neue Italic'">JPA</tspan></text>
</svg>
